<svg xmlns="http://www.w3.org/2000/svg" width="400" height="660" viewBox="0 0 105.833 174.625"><path d="M7.63 7.3h12.918v12.917H7.631z" fill="#fff" stroke="#000" stroke-width="1.082"/><path d="M11.942 17.023h3.971v-.751h-1.452v-6.49h-.691c-.395.227-.86.395-1.502.514v.573h1.284v5.403h-1.61z" aria-label="1" font-weight="400" font-size="9.878" font-family="sans-serif" letter-spacing="0" word-spacing="0" stroke-width=".265"/><path d="M20.548 7.3h12.918v12.917H20.548z" fill="#fff" stroke="#000" stroke-width="1.082"/><path d="M24.425 17.023h4.554v-.78h-2.005c-.366 0-.81.039-1.185.068 1.699-1.61 2.835-3.081 2.835-4.524 0-1.294-.81-2.143-2.104-2.143-.92 0-1.541.425-2.134 1.067l.524.513c.395-.474.908-.84 1.5-.84.9 0 1.334.603 1.334 1.433 0 1.245-1.047 2.687-3.319 4.672z" aria-label="2" font-weight="400" font-size="9.878" font-family="sans-serif" letter-spacing="0" word-spacing="0" stroke-width=".265"/><path d="M33.466 7.3h12.918v12.917H33.466z" fill="#fff" stroke="#000" stroke-width="1.082"/><path d="M39.516 17.151c1.285 0 2.322-.77 2.322-2.064 0-.988-.682-1.64-1.541-1.838v-.04c.77-.286 1.294-.868 1.294-1.748 0-1.165-.89-1.817-2.104-1.817-.84 0-1.482.365-2.025.87l.484.572c.405-.405.919-.701 1.501-.721.751.02 1.225.464 1.225 1.166 0 .78-.513 1.382-2.005 1.382v.692c1.67 0 2.252.583 2.252 1.452 0 .83-.612 1.343-1.472 1.343-.82 0-1.373-.385-1.797-.83l-.455.593c.474.514 1.186.988 2.321.988z" aria-label="3" font-weight="400" font-size="9.878" font-family="sans-serif" letter-spacing="0" word-spacing="0" stroke-width=".265"/><path d="M46.384 7.3h12.918v12.917H46.384z" fill="#fff" stroke="#000" stroke-width="1.082"/><path d="M50.963 14.306l1.65-2.47c.207-.355.404-.71.582-1.066h.04c-.02.375-.06.958-.06 1.314v2.222zm4.03 0h-.958V9.782h-.998l-3.013 4.653v.592h3.151v1.996h.86v-1.996h.958z" aria-label="4" font-weight="400" font-size="9.878" font-family="sans-serif" letter-spacing="0" word-spacing="0" stroke-width=".265"/><path d="M59.302 7.3H72.22v12.917H59.302z" fill="#fff" stroke="#000" stroke-width="1.082"/><path d="M65.323 17.151c1.224 0 2.37-.899 2.37-2.49 0-1.59-.978-2.3-2.183-2.3-.434 0-.76.108-1.076.286l.177-2.094h2.737v-.77H63.82l-.227 3.387.484.297c.415-.277.721-.425 1.205-.425.909 0 1.502.612 1.502 1.65 0 1.056-.692 1.708-1.541 1.708-.84 0-1.364-.385-1.778-.8l-.445.593c.484.484 1.176.958 2.302.958z" aria-label="5" font-weight="400" font-size="9.878" font-family="sans-serif" letter-spacing="0" word-spacing="0" stroke-width=".265"/><path d="M72.22 7.3h12.918v12.917H72.22z" fill="#fff" stroke="#000" stroke-width="1.082"/><path d="M78.636 16.45c-.91 0-1.452-.82-1.561-2.322.474-.671 1.027-.928 1.482-.928.879 0 1.303.622 1.303 1.6 0 .988-.533 1.65-1.224 1.65zm1.946-6.065a2.224 2.224 0 0 0-1.69-.741c-1.402 0-2.676 1.086-2.676 3.921 0 2.39 1.027 3.586 2.42 3.586 1.126 0 2.074-.948 2.074-2.35 0-1.512-.78-2.273-2.005-2.273-.573 0-1.205.336-1.65.88.04-2.253.88-3.013 1.867-3.013.445 0 .88.207 1.166.553z" aria-label="6" font-weight="400" font-size="9.878" font-family="sans-serif" letter-spacing="0" word-spacing="0" stroke-width=".265"/><path d="M85.138 7.3h12.918v12.917H85.138z" fill="#fff" stroke="#000" stroke-width="1.082"/><path d="M90.536 17.023h.938c.11-2.835.425-4.515 2.124-6.698v-.543h-4.534v.77h3.507c-1.413 1.976-1.916 3.725-2.035 6.47z" aria-label="7" font-weight="400" font-size="9.878" font-family="sans-serif" letter-spacing="0" word-spacing="0" stroke-width=".265"/><path stroke="#000" stroke-width="1.082" d="M7.63 20.218h12.918v12.918H7.63z" fill="#59f"/><path fill="#fff" stroke="#000" stroke-width="1.082" d="M20.548 20.218h12.918v12.918H20.548z"/><path stroke="#000" stroke-width="1.082" d="M33.466 20.218h12.918v12.918H33.466z" fill="#59f"/><path fill="#fff" stroke="#000" stroke-width="1.082" d="M46.384 20.218h12.918v12.918H46.384zM59.302 20.218H72.22v12.918H59.302zM72.22 20.218h12.917v12.918H72.22z"/><path stroke="#000" stroke-width="1.082" d="M85.137 20.218h12.918v12.918H85.137z" fill="#0f6"/><path stroke="#000" stroke-width="1.082" d="M7.63 33.135h12.918v12.918H7.63z" fill="#59f"/><path fill="#fff" stroke="#000" stroke-width="1.082" d="M20.548 33.135h12.918v12.918H20.548zM33.466 33.135h12.918v12.918H33.466z"/><path fill="#59f" stroke="#000" stroke-width="1.082" d="M46.384 33.135h12.918v12.918H46.384z"/><path fill="#fff" stroke="#000" stroke-width="1.082" d="M59.302 33.135H72.22v12.918H59.302zM72.22 33.135h12.917v12.918H72.22z"/><path stroke="#000" stroke-width="1.082" d="M85.137 33.135h12.918v12.918H85.137z" fill="#0f6"/><g><path stroke="#000" stroke-width="1.082" d="M7.63 46.053h12.918v12.918H7.63z" fill="#59f"/><path fill="#fff" stroke="#000" stroke-width="1.082" d="M20.548 46.053h12.918v12.918H20.548zM33.466 46.053h12.918v12.918H33.466zM46.384 46.053h12.918v12.918H46.384z"/><path fill="#59f" stroke="#000" stroke-width="1.082" d="M59.302 46.053H72.22v12.918H59.302z"/><path fill="#fff" stroke="#000" stroke-width="1.082" d="M72.22 46.053h12.917v12.918H72.22z"/><path stroke="#000" stroke-width="1.082" d="M85.137 46.053h12.918v12.918H85.137z" fill="#0f6"/></g><g><path stroke="#000" stroke-width="1.082" d="M7.63 58.971h12.918V71.89H7.63z" fill="#59f"/><path fill="#fff" stroke="#000" stroke-width="1.082" d="M20.548 58.971h12.918V71.89H20.548zM33.466 58.971h12.918V71.89H33.466zM46.384 58.971h12.918V71.89H46.384zM59.302 58.971H72.22V71.89H59.302zM72.22 58.971h12.917V71.89H72.22z"/><path fill="#59f" stroke="#000" stroke-width="1.082" d="M85.137 58.971h12.918V71.89H85.137z"/></g><g><path fill="none" stroke="#000" stroke-width="1.082" d="M7.63 71.889h12.918v12.918H7.63z"/><path stroke="#000" stroke-width="1.082" d="M20.548 71.889h12.918v12.918H20.548z" fill="#59f"/><path fill="#fff" stroke="#000" stroke-width="1.082" d="M33.466 71.889h12.918v12.918H33.466z"/><path fill="#59f" stroke="#000" stroke-width="1.082" d="M46.384 71.889h12.918v12.918H46.384z"/><path fill="#fff" stroke="#000" stroke-width="1.082" d="M59.302 71.889H72.22v12.918H59.302zM72.22 71.889h12.917v12.918H72.22z"/><path stroke="#000" stroke-width="1.082" d="M85.137 71.889h12.918v12.918H85.137z" fill="#0f6"/></g><g><path fill="#fff" stroke="#000" stroke-width="1.082" d="M7.63 84.807h12.918v12.918H7.63z"/><path stroke="#000" stroke-width="1.082" d="M20.548 84.807h12.918v12.918H20.548z" fill="#59f"/><path fill="#fff" stroke="#000" stroke-width="1.082" d="M33.466 84.807h12.918v12.918H33.466zM46.384 84.807h12.918v12.918H46.384z"/><path fill="#59f" stroke="#000" stroke-width="1.082" d="M59.302 84.807H72.22v12.918H59.302z"/><path fill="#fff" stroke="#000" stroke-width="1.082" d="M72.22 84.807h12.917v12.918H72.22z"/><path stroke="#000" stroke-width="1.082" d="M85.137 84.807h12.918v12.918H85.137z" fill="#0f6"/></g><g><path fill="#fff" stroke="#000" stroke-width="1.082" d="M7.63 97.725h12.918v12.918H7.63z"/><path stroke="#000" stroke-width="1.082" d="M20.548 97.725h12.918v12.918H20.548z" fill="#59f"/><path fill="#fff" stroke="#000" stroke-width="1.082" d="M33.466 97.725h12.918v12.918H33.466zM46.384 97.725h12.918v12.918H46.384zM59.302 97.725H72.22v12.918H59.302zM72.22 97.725h12.917v12.918H72.22z"/><path stroke="#000" stroke-width="1.082" d="M85.137 97.725h12.918v12.918H85.137z" fill="#59f"/></g><g fill="none" stroke="red" stroke-width="1.296"><path d="M41.767 26.698h22.586M15.057 26.698h22.586M67.5 26.698h22.586" opacity=".65"/></g><g opacity=".65" fill="none" stroke="red" stroke-width="1.296"><path d="M41.767 53.313h22.586M15.057 53.313h22.586M67.5 53.313h22.586"/></g><g opacity=".65" fill="none" stroke="red" stroke-width="1.296"><path d="M41.767 63.93h22.586M15.057 63.93h22.586M67.5 63.93h22.586"/></g><g fill="none" stroke="#f0f"><path d="M-8.448 38.825h22.586" opacity=".65" stroke-width="1.296" transform="matrix(1.62728 0 0 1 28.782 .898)"/><path d="M15.034 38.77h22.641" opacity=".652" stroke-width="1.298" transform="matrix(1.62728 0 0 1 28.782 .898)"/></g><g fill="none" stroke="#f0f" stroke-width="1.338"><path d="M15.034 67.722h36.754" opacity=".65" transform="matrix(1 0 0 .93823 0 5.047)"/><path d="M53.246 67.668H90.09" opacity=".652" transform="matrix(1 0 0 .93823 0 5.047)"/></g><path d="M27.51 104.159h62.58" opacity=".652" fill="none" stroke="#ff0" stroke-width="1.296"/><g><path fill="#fff" stroke="#000" stroke-width="1.082" d="M7.63 110.643h12.918v12.918H7.63zM20.548 110.643h12.918v12.918H20.548z"/><path stroke="#000" stroke-width="1.082" d="M33.466 110.643h12.918v12.918H33.466z" fill="#59f"/><path fill="#fff" stroke="#000" stroke-width="1.082" d="M46.384 110.643h12.918v12.918H46.384z"/><path fill="#59f" stroke="#000" stroke-width="1.082" d="M59.302 110.643H72.22v12.918H59.302z"/><path fill="#fff" stroke="#000" stroke-width="1.082" d="M72.22 110.643h12.917v12.918H72.22z"/><path stroke="#000" stroke-width="1.082" d="M85.137 110.643h12.918v12.918H85.137z" fill="#0f6"/></g><g><path fill="#fff" stroke="#000" stroke-width="1.082" d="M7.63 123.56h12.918v12.918H7.63zM20.548 123.56h12.918v12.918H20.548z"/><path stroke="#000" stroke-width="1.082" d="M33.466 123.56h12.918v12.918H33.466z" fill="#59f"/><path fill="#fff" stroke="#000" stroke-width="1.082" d="M46.384 123.56h12.918v12.918H46.384zM59.302 123.56H72.22v12.918H59.302zM72.22 123.56h12.917v12.918H72.22z"/><path fill="#59f" stroke="#000" stroke-width="1.082" d="M85.137 123.56h12.918v12.918H85.137z"/></g><g><path fill="#fff" stroke="#000" stroke-width="1.082" d="M7.63 136.478h12.918v12.918H7.63zM20.548 136.478h12.918v12.918H20.548zM33.466 136.478h12.918v12.918H33.466z"/><path stroke="#000" stroke-width="1.082" d="M46.384 136.478h12.918v12.918H46.384z" fill="#59f"/><path fill="#fff" stroke="#000" stroke-width="1.082" d="M59.302 136.478H72.22v12.918H59.302zM72.22 136.478h12.917v12.918H72.22z"/><path stroke="#000" stroke-width="1.082" d="M85.137 136.478h12.918v12.918H85.137z" fill="#59f"/></g><g opacity=".65" fill="none" stroke="red" stroke-width="1.296"><path d="M41.767 117.641h22.586M67.5 117.641h22.586"/></g><g opacity=".65" fill="none" stroke="red" stroke-width="1.296"><path d="M41.767 130.329h22.586M67.5 130.329h22.586"/></g><g><path fill="#fff" stroke="#000" stroke-width="1.082" d="M7.63 149.396h12.918v12.918H7.63zM20.548 149.396h12.918v12.918H20.548zM33.466 149.396h12.918v12.918H33.466zM46.384 149.396h12.918v12.918H46.384z"/><path stroke="#000" stroke-width="1.082" d="M59.302 149.396H72.22v12.918H59.302z" fill="#59f"/><path fill="#fff" stroke="#000" stroke-width="1.082" d="M72.22 149.396h12.917v12.918H72.22z"/><path stroke="#000" stroke-width="1.082" d="M85.137 149.396h12.918v12.918H85.137z" fill="#59f"/></g><g><path d="M53.246 67.668H90.09" opacity=".652" fill="none" stroke="#f0f" stroke-width="1.338" transform="matrix(1 0 0 .93823 0 80.962)"/></g><g opacity=".65"><path d="M67.5 156.973h22.586" fill="none" stroke="red" stroke-width="1.296"/></g></svg>