<svg xmlns="http://www.w3.org/2000/svg" width="400" height="100" viewBox="0 0 105.833 26.458"><path d="M6.434 6.2h12.918v12.918H6.434z" fill="#fff" stroke="#000" stroke-width="1.082"/><path d="M10.746 15.924h3.97v-.751h-1.451v-6.49h-.692c-.395.227-.859.395-1.501.514v.573h1.284v5.403h-1.61z" aria-label="1" font-weight="400" font-size="9.878" font-family="sans-serif" letter-spacing="0" word-spacing="0" stroke-width=".265"/><path d="M19.352 6.2H32.27v12.918H19.352z" fill="#fff" stroke="#000" stroke-width="1.082"/><path d="M23.23 15.924h4.553v-.78h-2.005c-.366 0-.81.039-1.186.068 1.7-1.61 2.835-3.081 2.835-4.524 0-1.294-.81-2.143-2.104-2.143-.918 0-1.54.425-2.133 1.067l.523.513c.395-.474.91-.84 1.502-.84.899 0 1.333.603 1.333 1.433 0 1.245-1.047 2.687-3.319 4.672z" aria-label="2" font-weight="400" font-size="9.878" font-family="sans-serif" letter-spacing="0" word-spacing="0" stroke-width=".265"/><path d="M32.27 6.2h12.918v12.918H32.27z" fill="#fff" stroke="#000" stroke-width="1.082"/><path d="M38.32 16.052c1.284 0 2.322-.77 2.322-2.064 0-.988-.682-1.64-1.541-1.838v-.04c.77-.286 1.294-.868 1.294-1.748 0-1.165-.89-1.817-2.104-1.817-.84 0-1.482.365-2.025.87l.484.572c.405-.405.918-.701 1.501-.721.75.02 1.225.464 1.225 1.166 0 .78-.514 1.382-2.005 1.382v.692c1.67 0 2.252.583 2.252 1.452 0 .83-.613 1.343-1.472 1.343-.82 0-1.373-.385-1.798-.83l-.454.593c.474.514 1.185.988 2.321.988z" aria-label="3" font-weight="400" font-size="9.878" font-family="sans-serif" letter-spacing="0" word-spacing="0" stroke-width=".265"/><path d="M45.188 6.2h12.918v12.918H45.188z" fill="#fff" stroke="#000" stroke-width="1.082"/><path d="M49.766 13.207l1.65-2.47c.207-.355.405-.71.583-1.066h.04c-.02.375-.06.958-.06 1.314v2.222zm4.03 0h-.958V8.683h-.997l-3.013 4.653v.592h3.151v1.996h.86v-1.996h.957z" aria-label="4" font-weight="400" font-size="9.878" font-family="sans-serif" letter-spacing="0" word-spacing="0" stroke-width=".265"/><g><path d="M58.106 6.2h12.918v12.918H58.106z" fill="#fff" stroke="#000" stroke-width="1.082"/><path d="M64.126 16.052c1.225 0 2.371-.899 2.371-2.49 0-1.59-.978-2.3-2.183-2.3-.435 0-.76.108-1.077.286l.178-2.094h2.736v-.77h-3.526l-.227 3.387.484.297c.415-.277.72-.425 1.205-.425.909 0 1.501.612 1.501 1.65 0 1.056-.691 1.708-1.54 1.708-.84 0-1.364-.385-1.779-.8l-.444.593c.484.484 1.175.958 2.301.958z" aria-label="5" font-weight="400" font-size="9.878" font-family="sans-serif" letter-spacing="0" word-spacing="0" stroke-width=".265"/></g><g><path d="M71.024 6.2h12.918v12.918H71.024z" fill="#fff" stroke="#000" stroke-width="1.082"/><path d="M77.44 15.35c-.91 0-1.453-.82-1.561-2.32.474-.672 1.027-.93 1.481-.93.88 0 1.304.623 1.304 1.601 0 .988-.533 1.65-1.225 1.65zm1.945-6.064a2.224 2.224 0 0 0-1.689-.741c-1.402 0-2.677 1.086-2.677 3.921 0 2.39 1.028 3.586 2.42 3.586 1.126 0 2.075-.948 2.075-2.35 0-1.512-.78-2.273-2.005-2.273-.573 0-1.206.336-1.65.88.04-2.253.879-3.013 1.867-3.013.444 0 .879.207 1.165.553z" aria-label="6" font-weight="400" font-size="9.878" font-family="sans-serif" letter-spacing="0" word-spacing="0" stroke-width=".265"/></g><g><path d="M83.942 6.2h12.917v12.918H83.942z" fill="#fff" stroke="#000" stroke-width="1.082"/><path d="M89.34 15.924h.938c.109-2.835.425-4.515 2.124-6.698v-.543h-4.534v.77h3.507c-1.413 1.976-1.917 3.725-2.035 6.47z" aria-label="7" font-weight="400" font-size="9.878" font-family="sans-serif" letter-spacing="0" word-spacing="0" stroke-width=".265"/></g></svg>